<?xml version="1.0" encoding="UTF-8" standalone="no"?>
<!DOCTYPE svg PUBLIC "-//W3C//DTD SVG 1.1//EN" "http://www.w3.org/Graphics/SVG/1.1/DTD/svg11.dtd">
<svg width="100%" height="100%" viewBox="0 0 836 385" version="1.1" xmlns="http://www.w3.org/2000/svg" xmlns:xlink="http://www.w3.org/1999/xlink" xml:space="preserve" xmlns:serif="http://www.serif.com/" style="fill-rule:evenodd;clip-rule:evenodd;stroke-linejoin:round;stroke-miterlimit:2;">
    <g transform="matrix(1,0,0,1,17,-283)">
        <path d="M151.46,519.18C149.43,513.38 148.95,508.85 148.95,495.03L148.95,462.48C148.95,442.68 131.85,433.31 96.31,433.31C63.96,433.31 48.5,441.23 47.25,459.19L77.19,459.19C78.35,449.63 84.05,445.96 97.76,445.96C112.25,445.96 118.82,451.08 118.82,462.47L118.82,465.76C99.02,466.15 89.65,466.53 82.31,467.21C56.52,470.11 42.13,480.35 42.13,495.89C42.13,511.43 58.26,521.49 81.83,521.49C99.02,521.49 109.74,517.53 120.56,507.39C120.75,511.93 121.33,514.44 122.78,519.17L151.46,519.17L151.46,519.18ZM118.81,478.71C118.81,487.02 118.62,489.72 117.36,493.78C114.95,501.51 104.9,506.63 91.86,506.63C80.08,506.63 73.22,502.09 73.22,494.07C73.22,483.06 83.07,478.91 110.02,478.91C111.76,478.91 112.92,478.91 115.91,478.72L118.81,478.72L118.81,478.71Z" style="fill:rgb(209,10,17);"/>
    </g>
    <g transform="matrix(1,0,0,1,17,-283)">
        <rect x="161.6" y="398.17" width="30.81" height="121.02" style="fill:rgb(209,10,17);"/>
    </g>
    <g transform="matrix(1,0,0,1,17,-283)">
        <path d="M352.54,510.49C362.58,518.31 372.63,521.5 385.86,521.5C415.8,521.5 436.08,503.05 436.08,475.82C436.08,450.03 417.25,433.33 388.08,433.33C371.95,433.33 361.81,437.1 352.54,446.95C352.35,442.02 352.35,440.57 351.86,435.65L320.95,435.65C321.14,439.42 321.63,447.24 321.63,450.23L321.63,550.58L352.54,550.58L352.54,510.49ZM379.58,448.58C395.71,449.06 404.5,458.91 404.5,476.49C404.5,495.04 393.97,506.24 376.78,506.24C360.84,506.24 351.28,495.91 351.28,479C351.28,458.91 361.32,448 379.58,448.58" style="fill:rgb(209,10,17);"/>
    </g>
    <g transform="matrix(1,0,0,1,17,-283)">
        <rect x="443.62" y="398.17" width="30.9" height="121.02" style="fill:rgb(209,10,17);"/>
    </g>
    <g transform="matrix(1,0,0,1,17,-283)">
        <path d="M591.87,519.18C589.84,513.38 589.36,508.85 589.36,495.03L589.36,462.48C589.36,442.68 572.17,433.31 536.63,433.31C504.27,433.31 488.82,441.23 487.67,459.19L517.51,459.19C518.77,449.63 524.37,445.96 538.18,445.96C551.99,445.96 559.24,451.08 559.24,462.47L559.24,465.76C539.34,466.15 530.07,466.53 522.73,467.21C496.94,470.11 482.46,480.35 482.46,495.89C482.46,511.43 498.69,521.49 522.25,521.49C539.34,521.49 550.16,517.53 560.98,507.39C561.17,511.93 561.66,514.44 563.1,519.17L591.88,519.17L591.87,519.18ZM559.23,478.71C559.23,487.02 558.94,489.72 557.78,493.78C555.27,501.51 545.22,506.63 532.28,506.63C520.5,506.63 513.64,502.09 513.64,494.07C513.64,483.06 523.4,478.91 550.34,478.91C552.08,478.91 553.33,478.91 556.23,478.72L559.22,478.72L559.23,478.71Z" style="fill:rgb(209,10,17);"/>
    </g>
    <g transform="matrix(1,0,0,1,17,-283)">
        <path d="M311.2,435.64L280.29,435.64L280.29,479.58C280.29,488.08 279.52,493.2 277.59,496.1C273.92,502.28 265.04,506.24 255.47,506.24C241.08,506.24 233.16,499.58 233.16,486.83L233.16,435.64L202.35,435.64L202.35,486.15C202.35,508.65 217.03,521.5 242.72,521.5C261.65,521.5 273.92,516.28 280.29,505.18C280.48,510.3 281.26,514.65 282.7,519.18L313.61,519.18C311.87,514.45 311.19,509.91 311.19,502.86L311.19,435.64L311.2,435.64Z" style="fill:rgb(209,10,17);"/>
    </g>
    <g transform="matrix(1,0,0,1,17,-283)">
        <path d="M698.4,458.33C697.43,440.85 683.91,433.32 653.59,433.32C623.27,433.32 601.34,443.65 601.34,458.14C601.34,465.77 606.75,472.34 616.02,476.49C622.39,479.19 627.13,480.35 644.51,483.44C669.04,487.59 673.19,489.52 673.19,496.29C673.19,503.06 664.3,507.59 651.07,507.59C637.16,507.59 630.98,503.15 630.02,493.2L599.6,493.2L599.6,496.29C599.6,512.32 617.76,521.69 648.66,521.69C682.27,521.69 703.13,511.16 703.13,494.45C703.13,486.24 698.69,480.16 689.61,475.81C683.23,472.62 678.6,471.37 658.99,467.79C634.17,463.44 631.27,462.19 631.27,456.1C631.27,451.08 639.09,447.41 650.1,447.41C663.14,447.41 668.26,450.5 669.03,458.32L698.39,458.32L698.4,458.33Z" style="fill:rgb(209,10,17);"/>
    </g>
    <g transform="matrix(1,0,0,1,17,-283)">
        <path d="M758.96,451.29L787.64,451.29L787.64,435.64L758.96,435.64L758.96,410.91L729.02,422.4L729.02,435.63L703.81,435.63L703.81,451.28L729.02,451.28L729.02,494.07C729.02,505.56 731.43,511.74 737.42,515.9C742.54,519.38 751.62,521.69 760.41,521.69C768.04,521.69 773.45,521.21 787.84,519.18L787.84,504.59C783.01,505.36 777.6,505.75 774.61,505.75C763.89,505.75 758.96,501.4 758.96,491.74L758.96,451.27L758.96,451.29Z" style="fill:rgb(209,10,17);"/>
    </g>
    <g transform="matrix(1,0,0,1,17,-283)">
        <path d="M802.52,403.48C794.7,403.48 788.32,409.76 788.32,417.58C788.32,425.4 794.7,431.68 802.52,431.68C810.34,431.68 816.53,425.4 816.53,417.58C816.53,409.76 810.25,403.48 802.52,403.48M802.52,429.36C795.95,429.36 790.64,424.05 790.64,417.58C790.64,411.11 795.86,405.8 802.52,405.8C809.18,405.8 814.21,411.01 814.21,417.58C814.21,424.05 808.99,429.36 802.52,429.36" style="fill:rgb(209,10,17);"/>
    </g>
    <g transform="matrix(1,0,0,1,17,-283)">
        <path d="M808.51,420.77C808.22,418.65 807.83,418.16 806.19,417.58C808.32,416.61 808.99,415.65 808.99,413.81C808.99,411.2 806.96,409.75 803.19,409.75L796.24,409.75L796.24,425.3L799.81,425.3L799.81,419.02L802.71,419.02C804.26,419.02 804.74,419.41 804.93,420.95L805.12,422.79C805.31,424.34 805.41,424.72 805.7,425.3L809.47,425.3C808.99,424.43 808.99,424.53 808.7,422.5L808.51,420.76L808.51,420.77ZM802.42,416.42L799.81,416.42L799.81,412.36L802.52,412.36C804.45,412.36 805.22,412.94 805.22,414.39C805.22,415.74 804.25,416.42 802.42,416.42" style="fill:rgb(209,10,17);"/>
    </g>
</svg>
